# xmcd
#
# Track frame offsets:
#	150
#	21330
#	45357
#	66055
#	85537
#	105660
#	129617
#	147232
# Disc length: 2273 seconds
# Revision: 2
# Processed by: cddbd v1.5.2PL0 Copyright (c) Steve Scherf et al.
#
# Submitted via: libkcddb 0.21
#
DISCID=6208df08
DTITLE=Vickie Winans - Total Victory
DYEAR=1989
DGENRE=Unknown
TTITLE0=Victory
TTITLE1=Stay With Me
TTITLE2=Statue Of Liberty
TTITLE3=The Lord Will Make A Way
TTITLE4=Keep On Climbing
TTITLE5=Turning It Over To You
TTITLE6=Everyday With Jesus
TTITLE7=God Of Comfort
EXTD=
EXTT0=
EXTT1=
EXTT2=
EXTT3=
EXTT4=
EXTT5=
EXTT6=
EXTT7=
PLAYORDER=
